<?xml version="1.0" encoding="UTF-8" standalone="no"?>
<!-- Created with Inkscape (http://www.inkscape.org/) -->

<svg
   width="16"
   height="16"
   viewBox="0 0 4.2333332 4.2333333"
   version="1.1"
   id="svg1"
   inkscape:version="1.4.3 (0d15f75042, 2025-12-25)"
   sodipodi:docname="ClearHistoryTool.svg"
   xmlns:inkscape="http://www.inkscape.org/namespaces/inkscape"
   xmlns:sodipodi="http://sodipodi.sourceforge.net/DTD/sodipodi-0.dtd"
   xmlns="http://www.w3.org/2000/svg"
   xmlns:svg="http://www.w3.org/2000/svg">
  <sodipodi:namedview
     id="namedview1"
     pagecolor="#505050"
     bordercolor="#eeeeee"
     borderopacity="1"
     inkscape:showpageshadow="0"
     inkscape:pageopacity="0"
     inkscape:pagecheckerboard="0"
     inkscape:deskcolor="#505050"
     inkscape:document-units="px"
     showguides="true"
     inkscape:zoom="45.254834"
     inkscape:cx="4.3641747"
     inkscape:cy="9.3249707"
     inkscape:window-width="2259"
     inkscape:window-height="1203"
     inkscape:window-x="0"
     inkscape:window-y="0"
     inkscape:window-maximized="1"
     inkscape:current-layer="layer1"
     showgrid="true">
    <sodipodi:guide
       position="4.5723306,4.9940103"
       orientation="0,-1"
       id="guide1"
       inkscape:locked="false" />
    <inkscape:grid
       id="grid2"
       units="px"
       originx="0"
       originy="0"
       spacingx="0.052916666"
       spacingy="0.052916666"
       empcolor="#0099e5"
       empopacity="0.14901961"
       color="#0099e5"
       opacity="0.07843137"
       empspacing="5"
       enabled="true"
       visible="true" />
  </sodipodi:namedview>
  <defs
     id="defs1" />
  <g
     inkscape:label="Layer 1"
     inkscape:groupmode="layer"
     id="layer1">
    <path
       id="rect1"
       style="display:none;fill:#e0e0e0;stroke-width:0.264978"
       d="M 0.79374998,1.3229166 H 3.4395832 l 0.5290362,2.1166667 -3.70403608,-2e-7 z"
       sodipodi:nodetypes="ccccc" />
    <rect
       style="display:none;fill:#e0e0e0;fill-opacity:1;stroke-width:0.374177"
       id="rect2"
       width="3.7041662"
       height="0.52916682"
       x="0.26458332"
       y="3.4395831"
       ry="0" />
    <path
       d="M 2.1254516,0.01240234 A 2.0917339,2.0917339 0 0 0 0.03358968,2.1042643 2.0917339,2.0917339 0 0 0 0.03824056,2.2401733 L 0.27491861,2.023649 c 0.003804,-0.00348 0.007776,-0.00692 0.0118856,-0.00982 A 1.840726,1.840726 0 0 1 2.1254516,0.2635498 1.840726,1.840726 0 0 1 3.9661661,2.1042643 1.840726,1.840726 0 0 1 2.2334554,3.9413614 H 2.2329386 L 1.9838582,4.1909586 a 2.0917339,2.0917339 0 0 0 0.1415934,0.00465 2.0917339,2.0917339 0 0 0 2.091862,-2.0913452 2.0917339,2.0917339 0 0 0 -2.091862,-2.09186196 z"
       style="fill:#e0e0e0;stroke-width:0.402256"
       id="path38" />
    <path
       d="M 2.2918497,2.1642089 2.1797119,2.0789428 C 2.1365233,2.0461218 2.0755903,2.0543583 2.0427693,2.0975463 L 1.9233968,2.2551595 c -0.032016,0.04213 -0.024957,0.1015301 0.015503,0.1348754 0.012106,0.00723 0.026664,0.011369 0.041858,0.011369 h 0.2304769 c 0.044745,0 0.080615,-0.035869 0.080615,-0.080615 z"
       style="fill:#e5e5e5;stroke-width:0.444645"
       id="path44" />
    <path
       d="m 1.9807576,0.78599852 c -0.044746,0 -0.080615,0.0363864 -0.080615,0.081132 V 2.3207885 c 0,0.029297 0.015535,0.055091 0.038757,0.069246 -0.04046,-0.033345 -0.047519,-0.092746 -0.015503,-0.1348754 L 2.0427693,2.0975463 c 0.032821,-0.043188 0.093754,-0.051424 0.1369426,-0.018603 l 0.1121378,0.085266 V 0.86713052 c 0,-0.0447456 -0.03587,-0.081132 -0.080615,-0.081132 z"
       style="fill:#e5e5e5;stroke-width:0.444645"
       id="path43" />
    <path
       d="m 2.2918497,2.1642089 v 0.1565796 c 0,0.044746 -0.03587,0.080615 -0.080615,0.080615 H 1.9807576 c -0.014101,0 -0.027279,-0.00306 -0.038757,-0.0093 l 0.8898681,0.6764445 c 0.043189,0.032821 0.1046387,0.024586 0.1374593,-0.018604 L 3.0887003,2.8928466 C 3.121521,2.8496581 3.1132853,2.788208 3.0700968,2.7553873 Z"
       style="fill:#e5e5e5;stroke-width:0.521185"
       id="path45" />
    <path
       d="M 2.2918497,2.1642089 2.1797119,2.0789428 C 2.1365233,2.0461222 2.07559,2.0543578 2.0427693,2.0975463 L 1.9233968,2.2551595 c -0.032016,0.04213 -0.024957,0.1015297 0.015503,0.1348754 0.012246,0.00746 0.026409,0.011369 0.041858,0.011369 h 0.2304769 c 0.044746,0 0.080615,-0.03587 0.080615,-0.080615 z"
       style="fill:#e5e5e5;stroke-width:0.521185"
       id="path36" />
    <path
       d="M 1.1394653,2.7621053 0.95653074,2.9450398 1.2815755,3.2700846 1.4562418,3.0954182 Z"
       style="fill:#cd3838;stroke-width:0.459848"
       id="path40" />
    <path
       d="M 1.1394653,2.7621053 1.4562418,3.0954182 1.8670695,2.6845906 c 0.036028,-0.036028 0.036028,-0.09368 0,-0.1297078 L 1.6717326,2.3595459 c -0.036028,-0.036028 -0.09368,-0.036028 -0.1297079,0 z"
       style="fill:#cd3838;stroke-width:0.459848"
       id="path39" />
    <path
       d="m 0.29868977,2.3326741 c -0.021015,0.00168 -0.0412173,0.010728 -0.0573608,0.026872 l -0.16484781,0.1648478 -0.0304891,0.030489 c -0.03602798,0.036028 -0.03602798,0.09368 0,0.1297078 l 0.10231934,0.1023193 0.48317463,0.4831747 0.0387573,-0.038757 A 1.840726,1.840726 0 0 0 0.9947713,3.5568888 l -0.0382406,0.038241 0.28163656,0.2816366 0.2041219,0.2046386 h 5.168e-4 l 0.062528,0.062528 0.03669,0.03669 c 0.036028,0.036028 0.09368,0.036028 0.1297079,0 l 0.028422,-0.028422 0.1669149,-0.1669149 c 0.015527,-0.015527 0.024211,-0.035121 0.026355,-0.055294 0.00283,-0.026636 -0.00585,-0.053913 -0.026355,-0.074414 L 1.8448486,3.8333577 1.5637288,3.5522379 1.2815755,3.2700846 0.95653074,2.9450398 0.37103678,2.3595459 c -0.0198845,-0.019885 -0.0464621,-0.028936 -0.072347,-0.026872 z"
       style="fill:#cd3838;stroke-width:0.459848"
       id="path42" />
    <path
       d="M 0.67024331,3.2313272 0.63148599,3.2700846 0.49144286,3.4101277 0.18655192,3.7150186 0.04599202,3.8555785 c -0.03602798,0.036028 -0.03602798,0.09368 0,0.1297079 l 0.19533691,0.1953369 c 0.036028,0.036028 0.0936799,0.036028 0.12970785,0 L 0.50332844,4.0483316 0.81597085,3.7356892 0.95653074,3.5951293 0.9947713,3.5568888 A 1.840726,1.840726 0 0 1 0.67024331,3.2313272 Z"
       style="fill:#cd3838;stroke-width:0.459848"
       id="path41" />
  </g>
</svg>
