<?xml version="1.0" encoding="UTF-8" standalone="no"?>
<!-- Created with Inkscape (http://www.inkscape.org/) -->

<svg
   width="16"
   height="16"
   viewBox="0 0 4.2333332 4.2333333"
   version="1.1"
   id="svg1"
   inkscape:version="1.4.3 (0d15f75042, 2025-12-25)"
   sodipodi:docname="DestroyTileTool.svg"
   xmlns:inkscape="http://www.inkscape.org/namespaces/inkscape"
   xmlns:sodipodi="http://sodipodi.sourceforge.net/DTD/sodipodi-0.dtd"
   xmlns="http://www.w3.org/2000/svg"
   xmlns:svg="http://www.w3.org/2000/svg">
  <sodipodi:namedview
     id="namedview1"
     pagecolor="#505050"
     bordercolor="#eeeeee"
     borderopacity="1"
     inkscape:showpageshadow="0"
     inkscape:pageopacity="0"
     inkscape:pagecheckerboard="0"
     inkscape:deskcolor="#505050"
     inkscape:document-units="px"
     showguides="true"
     inkscape:zoom="22.627417"
     inkscape:cx="7.5793008"
     inkscape:cy="12.330174"
     inkscape:window-width="2259"
     inkscape:window-height="1203"
     inkscape:window-x="0"
     inkscape:window-y="0"
     inkscape:window-maximized="1"
     inkscape:current-layer="layer1"
     showgrid="true">
    <sodipodi:guide
       position="4.5723306,4.9940103"
       orientation="0,-1"
       id="guide1"
       inkscape:locked="false" />
    <inkscape:grid
       id="grid2"
       units="px"
       originx="0"
       originy="0"
       spacingx="0.052916666"
       spacingy="0.052916666"
       empcolor="#0099e5"
       empopacity="0.14901961"
       color="#0099e5"
       opacity="0.07843137"
       empspacing="5"
       enabled="true"
       visible="true" />
  </sodipodi:namedview>
  <defs
     id="defs1" />
  <g
     inkscape:label="Layer 1"
     inkscape:groupmode="layer"
     id="layer1">
    <path
       d="M 0.79374998,1.3229166 0.26458333,3.4395833 V 3.9687499 H 3.9687499 V 3.4395833 L 3.834908,2.9036987 3.6679931,3.0706135 c -0.056485,0.056485 -0.1476369,0.056485 -0.2041219,0 L 2.8845784,2.4913208 2.3414591,3.03444 c -0.056485,0.056485 -0.1476369,0.056485 -0.2041219,0 L 1.2774414,2.1740275 c -0.056485,-0.056485 -0.056485,-0.1476369 0,-0.2041219 L 1.8200439,1.427303 1.7161743,1.3229166 Z"
       style="fill:#e0e0e0;stroke-width:0.264978"
       id="path28" />
    <path
       d="m 2.2468912,0.18655192 c -0.022529,0 -0.044799,0.008625 -0.062012,0.0258382 l -0.523999,0.52451578 c -0.034426,0.0344255 -0.034426,0.0901146 0,0.1245402 L 2.023649,1.2236979 2.122351,1.3229166 2.247408,1.4474568 2.0443196,1.6505452 1.6608805,2.0339843 c -0.034426,0.034426 -0.034426,0.090115 0,0.1245402 l 0.523999,0.523999 c 0.034426,0.034426 0.090115,0.034426 0.1245402,0 L 2.6928588,2.2996012 2.8959472,2.0959961 3.0876668,2.2882324 3.4824747,2.6825235 c 0.034426,0.034426 0.089598,0.034426 0.1240234,0 L 3.744991,2.5440307 4.1310139,2.1585245 c 0.034426,-0.034425 0.034426,-0.090115 0,-0.1245402 L 3.736206,1.6391764 3.5444864,1.4474568 3.7568766,1.2350667 4.1310139,0.86144611 c 0.034426,-0.0344256 0.034426,-0.0901147 0,-0.1245402 L 3.6064981,0.21239013 c -0.034426,-0.0344256 -0.089598,-0.0344256 -0.1240234,0 L 3.1083373,0.58652749 2.8959472,0.79891763 2.6721883,0.57515868 2.3094197,0.21239013 c -0.017213,-0.0172128 -0.04,-0.0258382 -0.062528,-0.0258382 z"
       style="fill:#e9e9e9;stroke-width:0.710476"
       id="path27" />
  </g>
</svg>
