<?xml version="1.0" encoding="UTF-8" standalone="no"?>
<!-- Created with Inkscape (http://www.inkscape.org/) -->

<svg
   width="16"
   height="16"
   viewBox="0 0 4.2333332 4.2333333"
   version="1.1"
   id="svg1"
   inkscape:version="1.4.3 (0d15f75042, 2025-12-25)"
   sodipodi:docname="FindKeyframeTool.svg"
   xmlns:inkscape="http://www.inkscape.org/namespaces/inkscape"
   xmlns:sodipodi="http://sodipodi.sourceforge.net/DTD/sodipodi-0.dtd"
   xmlns="http://www.w3.org/2000/svg"
   xmlns:svg="http://www.w3.org/2000/svg">
  <sodipodi:namedview
     id="namedview1"
     pagecolor="#505050"
     bordercolor="#eeeeee"
     borderopacity="1"
     inkscape:showpageshadow="0"
     inkscape:pageopacity="0"
     inkscape:pagecheckerboard="0"
     inkscape:deskcolor="#505050"
     inkscape:document-units="px"
     showguides="true"
     inkscape:zoom="45.254834"
     inkscape:cx="10.672893"
     inkscape:cy="6.0766989"
     inkscape:window-width="2259"
     inkscape:window-height="1203"
     inkscape:window-x="0"
     inkscape:window-y="0"
     inkscape:window-maximized="1"
     inkscape:current-layer="layer1"
     showgrid="true">
    <sodipodi:guide
       position="4.5723306,4.9940103"
       orientation="0,-1"
       id="guide1"
       inkscape:locked="false" />
    <inkscape:grid
       id="grid2"
       units="px"
       originx="0"
       originy="0"
       spacingx="0.052916666"
       spacingy="0.052916666"
       empcolor="#0099e5"
       empopacity="0.14901961"
       color="#0099e5"
       opacity="0.07843137"
       empspacing="5"
       enabled="true"
       visible="true" />
  </sodipodi:namedview>
  <defs
     id="defs1" />
  <g
     inkscape:label="Layer 1"
     inkscape:groupmode="layer"
     id="layer1">
    <path
       d="M 0.63581264,2.0014381 0.26458333,3.4395833 V 3.9687499 H 3.9687499 V 3.4395833 L 3.7869654,2.6550133 3.1934262,3.2519926 c -0.045246,0.045246 -0.1176989,0.044891 -0.1632976,0 L 2.6416992,2.8695922 c -0.045599,-0.044891 -0.045246,-0.1180515 0,-0.1632975 l 0.361735,-0.3679362 -1.3446207,0.00207 c -0.063988,9.83e-5 -0.021376,-3.572e-4 -0.085358,4.41e-4 L 1.449432,2.3424195 1.3507303,2.435437 C 1.3053763,2.480791 1.216816,2.5729257 1.171089,2.5279475 Z"
       style="display:inline;fill:#e0e0e0;stroke-width:0.264978"
       id="path20"
       sodipodi:nodetypes="cccccccssscssccsc" />
    <rect
       style="fill:#e0e0e0;fill-opacity:1;stroke-width:0.264583"
       id="rect3-3"
       width="2.6458328"
       height="0.52916664"
       x="8.9958334"
       y="6.8791661"
       ry="0.080768317" />
    <rect
       style="fill:#e0e0e0;fill-opacity:1;stroke-width:0.264583"
       id="rect4-5"
       width="1.8520833"
       height="0.42333332"
       x="1.0999013"
       y="11.200742"
       ry="0.080768317"
       transform="rotate(-45)" />
    <rect
       style="fill:#e0e0e0;fill-opacity:1;stroke-width:0.264583"
       id="rect5-6"
       width="1.8520833"
       height="0.42333332"
       x="11.200742"
       y="-1.5232347"
       ry="0.080768317"
       transform="rotate(45)" />
    <path
       d="m 1.2164632,0.06614583 c -0.015284,0.001469 -0.03062,0.0089157 -0.042375,0.02067057 L 0.32091064,0.93999428 c -0.001639,0.00136 -0.003114,0.003111 -0.004651,0.004651 L 0.15916341,1.1017415 c -0.0268679,0.026868 -0.0268679,0.069767 0,0.096635 L 0.32091064,1.3596069 0.69194741,1.7306437 1.1740885,2.2133016 c 0.026868,0.026868 0.070284,0.026868 0.097152,0 L 1.4283366,2.0562052 c 0.026868,-0.026868 0.026868,-0.069767 0,-0.096635 L 0.84439289,1.3756266 H 2.5419637 c 0.032646,0 0.059683,-0.022279 0.066663,-0.05271 0.00114,-0.00499 0.00207,-0.010152 0.00207,-0.015503 V 0.9947713 c 0,-0.037997 -0.030734,-0.0682129 -0.06873,-0.0682129 H 0.84232583 L 1.4283366,0.34054768 c 0.026868,-0.0268679 0.026868,-0.0697671 0,-0.0966349 L 1.2712402,0.0868164 c -0.013224,-0.013224 -0.030326,-0.02039699 -0.047542,-0.02067057 -0.00246,-3.909e-5 -0.00477,-2.3614e-4 -0.00723,0 z"
       style="display:inline;fill:#e0e0e0;stroke-width:0.224677"
       id="path26" />
    <path
       d="m 3.1176391,0.83354084 c -0.017554,0 -0.035107,0.006686 -0.048576,0.0201538 L 2.9114501,1.010791 c -0.026937,0.026937 -0.026937,0.070731 0,0.097668 l 0.2144572,0.2144571 0.37052,0.3705201 H 1.7952392 c -0.038094,0 -0.06873,0.030637 -0.06873,0.06873 v 0.3131592 c 0,0.038094 0.030637,0.06873 0.06873,0.06873 h 1.703772 L 2.9114501,2.7310994 c -0.026937,0.026937 -0.026937,0.070216 0,0.097152 l 0.1576132,0.1576131 c 0.013258,0.013258 0.030282,0.020396 0.047542,0.020671 0.00247,3.92e-5 0.00477,-2.801e-4 0.00723,-5.168e-4 0.015323,-0.00147 0.03059,-0.00837 0.042375,-0.020154 L 3.7176025,2.4344767 4.0214599,2.1301025 h 5.167e-4 c 0.00161,-0.00136 0.00312,-0.00259 0.00465,-0.00413 L 4.1837239,1.9683553 c 0.026936,-0.026937 0.026936,-0.070215 0,-0.097152 L 4.0219766,1.7094563 3.1662149,0.85369464 c -0.013469,-0.0134682 -0.031022,-0.0201538 -0.048576,-0.0201538 z"
       style="display:inline;fill:#e0e0e0;stroke-width:0.225251"
       id="path25" />
  </g>
</svg>
