<?xml version="1.0" encoding="UTF-8" standalone="no"?>
<!-- Created with Inkscape (http://www.inkscape.org/) -->

<svg
   width="16"
   height="16"
   viewBox="0 0 4.2333332 4.2333333"
   version="1.1"
   id="svg1"
   inkscape:version="1.4.3 (0d15f75042, 2025-12-25)"
   sodipodi:docname="TelegraphTileTool.svg"
   xmlns:inkscape="http://www.inkscape.org/namespaces/inkscape"
   xmlns:sodipodi="http://sodipodi.sourceforge.net/DTD/sodipodi-0.dtd"
   xmlns="http://www.w3.org/2000/svg"
   xmlns:svg="http://www.w3.org/2000/svg">
  <sodipodi:namedview
     id="namedview1"
     pagecolor="#505050"
     bordercolor="#eeeeee"
     borderopacity="1"
     inkscape:showpageshadow="0"
     inkscape:pageopacity="0"
     inkscape:pagecheckerboard="0"
     inkscape:deskcolor="#505050"
     inkscape:document-units="px"
     showguides="true"
     inkscape:zoom="22.627417"
     inkscape:cx="6.1208931"
     inkscape:cy="6.098796"
     inkscape:window-width="2259"
     inkscape:window-height="1203"
     inkscape:window-x="0"
     inkscape:window-y="0"
     inkscape:window-maximized="1"
     inkscape:current-layer="layer1"
     showgrid="true">
    <sodipodi:guide
       position="4.5723306,4.9940103"
       orientation="0,-1"
       id="guide1"
       inkscape:locked="false" />
    <inkscape:grid
       id="grid2"
       units="px"
       originx="0"
       originy="0"
       spacingx="0.052916666"
       spacingy="0.052916666"
       empcolor="#0099e5"
       empopacity="0.14901961"
       color="#0099e5"
       opacity="0.07843137"
       empspacing="5"
       enabled="true"
       visible="true" />
  </sodipodi:namedview>
  <defs
     id="defs1" />
  <g
     inkscape:label="Layer 1"
     inkscape:groupmode="layer"
     id="layer1">
    <path
       d="M 3.6509399,2.1693766 3.501595,2.3807332 c -0.016911,0.023901 -0.049368,0.029356 -0.072864,0.011886 L 3.2675007,2.2727294 1.5017171,3.4395833 h 2.4670328 z"
       style="fill:#e0e0e0;stroke-width:0.264978"
       id="path13" />
    <path
       d="M 0.26458333,3.4395833 H 1.3187825 L 1.786971,1.3229166 H 0.79374998 Z"
       style="fill:#e0e0e0;stroke-width:0.264978"
       id="path12" />
    <path
       d="M 3.9687499,3.4395833 H 1.5017171 L 1.2872599,3.5811767 1.3187825,3.4395833 H 0.26458333 V 3.9687499 H 3.9687499 Z"
       style="fill:#e0e0e0;stroke-width:0.374177"
       id="path14" />
    <path
       d="M 2.0913452,1.3229166 H 3.2783528 L 3.4860921,0.38447265 2.0959961,1.3022461 Z"
       style="display:inline;fill:#e0e0e0;stroke-width:1.55299"
       id="path16" />
    <path
       d="M 2.0913452,1.3229166 1.7363281,2.9285034 3.1259073,2.0102132 3.2783528,1.3229166 Z"
       style="display:inline;fill:#e0e0e0;stroke-width:1.55299"
       id="path15" />
    <path
       d="m 1.8474324,1.0826212 0.094051,0.073897 c 0.011072,0.00864 0.026772,0.00648 0.034623,-0.00517 L 2.1626586,0.87488198 Z"
       style="fill:#e0e0e0;stroke-width:1.37297"
       id="path18" />
    <path
       d="M 1.8474324,1.0826212 2.1626586,0.87488198 2.6556518,0.14366048 c 0.00785,-0.0116441 0.00487,-0.028051 -0.0062,-0.0366903 L 2.534729,0.01756999 C 2.5236569,0.0089307 2.5084737,0.01109349 2.5006225,0.02273763 L 1.8210774,1.030428 c -0.00785,0.011644 -0.00487,0.028051 0.0062,0.03669 z"
       style="fill:#e0e0e0;stroke-width:1.37297"
       id="path17" />
    <path
       d="M 3.5134806,1.7394287 3.2917887,2.0686075 c -0.00785,0.011644 -0.00539,0.027534 0.00568,0.036173 l 0.1033528,0.080099 0.016536,-0.010852 z"
       style="fill:#e0e0e0;stroke-width:1.37297"
       id="path21" />
    <path
       d="m 3.5134806,1.7394287 -0.096118,0.4345988 -0.016536,0.010852 0.011369,0.0093 c 0.011072,0.00864 0.026255,0.00648 0.034106,-0.00517 L 3.5992634,1.9621541 3.5357014,1.7068725 Z"
       style="fill:#e0e0e0;stroke-width:1.37297"
       id="path20" />
    <path
       d="M 3.5992634,1.9621541 4.1258463,1.1813232 c 0.00785,-0.011644 0.00539,-0.028051 -0.00568,-0.03669 l -0.1147217,-0.0894 c -0.011072,-0.00864 -0.026255,-0.00648 -0.034106,0.00517 L 3.5357014,1.7068725 Z"
       style="fill:#e0e0e0;stroke-width:1.37297"
       id="path19" />
  </g>
</svg>
